<?xml version="1.0" encoding="utf-8"?>
<svg xmlns="http://www.w3.org/2000/svg" viewBox="0 0 585.3 343">
<style type="text/css">
  .st0{fill:#F26419;}
</style>
<g>
  <path class="st0" d="M285.7,58.1c-18.9,23-29.8,49.4-35.8,78.1c-0.7,0-1.3,0.1-1.9,0.1c-6.9,0-13.8-0.1-20.8,0c-1.5,0-2.3-0.4-3.1-1.7
    c-7.8-12.3-18.2-21.8-31.8-27.1c-21.2-8.2-41.8-6.8-61.1,5.8c-17.2,11.3-27.9,27.2-31.2,47.8c-3,19.2,1.1,37,12.7,52.6
    c12.1,16.3,28.5,26.1,48.9,27.4c26.1,1.7,46.6-8.8,61.4-30.3c1.5-2.1,2.9-3.1,5.5-3c6.1,0.2,12.1,0,18.2,0c0.8,0,1.7,0,2.8,0
    c2.8,14.3,7,28.2,13,41.5c5.9,13.3,13.7,25.4,22.9,36.8c-0.5,0.7-0.9,1.2-1.4,1.7c-20,21.7-44,36.9-72.3,45
    c-19.6,5.6-39.7,7-60.1,5.2c-17.3-1.5-33.8-5.8-49.6-12.6c-26-11.3-47.4-28.6-64.5-51.2c-11.9-15.7-20.4-33.2-26.2-52.1
    c-3.9-12.7-5.9-25.6-6.9-38.7c-1.2-17,0.5-33.8,4.2-50.4c2.6-11.3,6.3-22.3,11.2-32.9c3.5-7.5,7.3-14.9,11.9-21.8
    c10.4-15.7,23-29.4,38.1-40.7c20-15,42.3-24.6,66.8-29.2c9.4-1.8,18.9-2.9,28.4-3c11.6-0.2,23,1.2,34.4,3.4
    c15.7,3,30.5,8.5,44.4,16.2c13.2,7.3,25,16.5,35.7,27.1C281.8,53.9,283.7,56,285.7,58.1z"/>
  <path class="st0" d="M301.4,58.2C341.3,13.3,409.7-9,476,14.8c62.8,22.5,95.5,77.3,103.5,121.4c-0.8,0-1.5,0.1-2.2,0.1
    c-31.8,0-63.5,0.1-95.3,0.1c-1.5,0-2.3-0.4-3.1-1.7c-6.9-11.1-16.1-19.7-27.8-25.6c-6.9-3.5-14.2-5.3-21.8-6.2
    c-9.1-1-18.1-0.3-26.9,2.3c-10,3-18.6,8.3-26.2,15.4c-11.4,10.6-18.7,23.7-21.2,39c-3.8,23.3,2.2,43.9,18.7,61.1
    c9.6,10,21.1,16.8,34.8,19.2c24.5,4.2,45.7-2.4,62.9-20.6c2.9-3.1,5.3-6.6,7.8-10c0.8-1.1,1.6-1.6,3-1.6c13.7,0,27.4,0,41.1,0
    c18,0,36,0,54,0c0.8,0,1.7,0,2.6,0c0,0.6,0.1,1.1,0,1.5c-4.3,18.9-11.2,36.7-21.5,53.2c-5.1,8.2-11.1,15.7-17.5,22.9
    c-11,12.3-23.6,22.7-37.8,31.1c-19.8,11.7-41.1,19-64,21.3c-15.4,1.5-30.7,1.2-46-1.4c-27.6-4.7-52.2-16.1-73.8-33.8
    c-5.6-4.6-10.6-9.8-15.9-14.7c-0.6-0.6-1.1-1.2-1.8-2c0.2-0.4,0.4-0.7,0.6-1c15.3-18.6,25.4-39.8,31.4-63.1
    c4.4-17.1,7.2-34.5,6.7-52.2c-0.7-28-6.4-54.9-18.6-80.3c-5.2-10.8-11.3-21-19.1-30.1C301.9,59,301.7,58.6,301.4,58.2z"/>
  <path class="st0" d="M293.1,276c-24.2-33.2-36.2-70.2-34.1-111.3c1.8-35.5,12.7-68,34.4-97c0.8,1.1,1.5,1.8,2,2.6c12.2,16.8,20.7,35.3,26,55.4
    c3.8,14.5,5.9,29.2,6,44.2c0.2,24.9-4.2,48.9-14.1,71.9c-5,11.7-11.3,22.7-18.8,33c-0.2,0.3-0.5,0.6-0.7,0.9
    C293.8,275.7,293.6,275.8,293.1,276z"/>
</g>
</svg>